<svg width="610" height="287" viewBox="0 0 610 287" fill="none" xmlns="http://www.w3.org/2000/svg">
<path d="M60 51C55.7059 56.0098 52.7662 62.2349 49.4444 67.8889C39.6878 84.4959 30.7667 101.409 23.5 119.278C14.6452 141.052 5.9913 164.176 2.66665 187.556C0.909896 199.91 2.42343 212.122 8.49999 223.111C21.0896 245.88 50.1907 252.698 74.2222 248.667C91.2482 245.81 105.796 236.203 117.444 223.722C128.063 212.346 133.594 196.462 142.556 183.778C167.683 148.213 200.784 118.974 221.389 80.1111C229.01 65.7375 237.64 45.0057 234.778 27.8333C231.712 9.43574 207.001 5.22777 192.111 3.77779C171.072 1.72902 150.204 1.91167 129.167 4.05556C121.313 4.85592 110.327 4.57971 103.222 8.77779C95.8357 13.1426 93.1337 25.9584 90 33.4445C87.5347 39.3338 85.7155 44.284 82 49.4445C76.602 56.9417 68.2653 62.4579 62 69.2222C42.9033 89.8399 24.2433 111.536 16.2222 139.222C8.90316 164.485 10.6019 195.134 26.5 216.444C39.8596 234.352 56.683 237.23 78.6667 237.778C116.377 238.718 149.647 221.64 181.667 203.444C189.239 199.141 199.2 194.619 205 187.778C205.749 186.895 207.744 181.656 207.944 185.167C208.637 197.281 209.399 222.997 228.111 221.5C249.51 219.788 272.217 203.278 288.444 190.778C305.736 177.457 320.837 161.659 330.667 142C331.749 139.835 334.744 127.88 333.389 136.611C330.724 153.782 323.507 169.252 317.889 185.556C314.992 193.962 311.046 205.308 313.444 214.444C315.04 220.522 325.59 218.708 329.611 217.611C354.422 210.845 378.437 195.563 396.444 177.556C399.369 174.631 396.909 186.916 396.889 187.056C395.178 198.664 391.603 211.624 397.667 222.556C403.64 233.323 414.017 233.549 425.111 230.833C446.921 225.495 465.432 210.798 482 196.333C492.065 187.546 506.376 176.692 512.556 164.333C513.892 161.661 516.228 156.899 515.944 153.778C515.478 148.645 510.768 137.342 505.5 135C498.421 131.854 488.114 136.362 482.444 140.556C467.416 151.673 472.627 173.344 479.222 188.111C492.762 218.429 522.182 203.421 542.667 187.611C557.354 176.275 566.14 160.116 567.778 141.556C567.959 139.502 568.244 136.361 567.5 134.278C566.48 131.423 564.564 139.606 563.5 142.444C553.959 167.886 541.887 191.848 530.944 216.667C525.926 228.048 521.489 239.83 518.778 252C517.121 259.434 514.154 271.654 520.556 278C531.152 288.505 552.272 284.476 564.111 278.944C581.419 270.858 594.941 256.525 608 243" stroke="black" stroke-width="3" stroke-linecap="round"/>
</svg>
